HIERARCHY
ROOT Hips
{
	OFFSET	0.00	0.00	0.00
	CHANNELS 6 Xposition Yposition Zposition Zrotation Xrotation Yrotation
	JOINT LeftUpLeg
	{
		OFFSET	 0.126116	-0.014019	-0.065224
		CHANNELS 3 Zrotation Xrotation Yrotation
		JOINT LeftLeg
		{
			OFFSET	 0.000000	 0.000000	 0.569914
			CHANNELS 3 Zrotation Xrotation Yrotation
			JOINT LeftFoot
			{
				OFFSET	 0.000000	 0.000000	 0.544423
				CHANNELS 3 Zrotation Xrotation Yrotation
				JOINT LeftToeBase
				{
					OFFSET	 0.000000	 0.000000	 0.207117
					CHANNELS 3 Zrotation Xrotation Yrotation
					End Site
					{
						OFFSET	 0.000000	 0.000000	 0.207117
					}
				}
			}
		}
	}
	JOINT RightUpLeg
	{
		OFFSET	-0.124023	-0.008373	-0.065224
		CHANNELS 3 Zrotation Xrotation Yrotation
		JOINT RightLeg
		{
			OFFSET	 0.000000	 0.000000	 0.570047
			CHANNELS 3 Zrotation Xrotation Yrotation
			JOINT RightFoot
			{
				OFFSET	 0.000000	 0.000000	 0.544354
				CHANNELS 3 Zrotation Xrotation Yrotation
				JOINT RightToeBase
				{
					OFFSET	 0.000000	 0.000000	 0.207540
					CHANNELS 3 Zrotation Xrotation Yrotation
					End Site
					{
						OFFSET	 0.000000	 0.000000	 0.207540
					}
				}
			}
		}
	}
	JOINT Spine
	{
		OFFSET	 0.000184	-0.007763	 0.117403
		CHANNELS 3 Zrotation Xrotation Yrotation
		JOINT Spine1
		{
			OFFSET	 0.000000	 0.000000	 0.137269
			CHANNELS 3 Zrotation Xrotation Yrotation
			JOINT Spine2
			{
				OFFSET	 0.000000	 0.000000	 0.156879
				CHANNELS 3 Zrotation Xrotation Yrotation
				JOINT LeftShoulder
				{
					OFFSET	 0.080501	-0.002496	 0.160144
					CHANNELS 3 Zrotation Xrotation Yrotation
					JOINT LeftArm
					{
						OFFSET	 0.000000	 0.000000	 0.164363
						CHANNELS 3 Zrotation Xrotation Yrotation
						JOINT LeftForeArm
						{
							OFFSET	 0.000000	 0.000000	 0.364576
							CHANNELS 3 Zrotation Xrotation Yrotation
							JOINT LeftHand
							{
								OFFSET	 0.000000	 0.000000	 0.360812
								CHANNELS 3 Zrotation Xrotation Yrotation
								JOINT LeftHandIndex1
								{
									OFFSET	 0.000000	 0.000000	 0.086006
									CHANNELS 3 Zrotation Xrotation Yrotation
									JOINT LeftHandIndex2
									{
										OFFSET	 0.000000	 0.000000	 0.047236
										CHANNELS 3 Zrotation Xrotation Yrotation
										JOINT LeftHandIndex3
										{
											OFFSET	-0.004284	-0.000551	 0.038166
											CHANNELS 3 Zrotation Xrotation Yrotation
											End Site
											{
												OFFSET	-0.004284	-0.000551	 0.038166
											}
										}
									}
								}
							}
						}
					}
				}
				JOINT Neck
				{
					OFFSET	 0.000000	 0.000000	 0.176489
					CHANNELS 3 Zrotation Xrotation Yrotation
					JOINT Head
					{
						OFFSET	 0.000000	-0.001747	 0.077940
						CHANNELS 3 Zrotation Xrotation Yrotation
						End Site
						{
							OFFSET	 0.000000	-0.001747	 0.077940
						}
					}
				}
				JOINT RightShoulder
				{
					OFFSET	-0.080363	 0.000306	 0.159706
					CHANNELS 3 Zrotation Xrotation Yrotation
					JOINT RightArm
					{
						OFFSET	 0.000000	 0.000000	 0.164196
						CHANNELS 3 Zrotation Xrotation Yrotation
						JOINT RightForeArm
						{
							OFFSET	 0.000000	 0.000000	 0.365611
							CHANNELS 3 Zrotation Xrotation Yrotation
							JOINT RightHand
							{
								OFFSET	 0.000000	 0.000000	 0.360648
								CHANNELS 3 Zrotation Xrotation Yrotation
								JOINT RightHandIndex1
								{
									OFFSET	 0.000000	 0.000000	 0.069977
									CHANNELS 3 Zrotation Xrotation Yrotation
									JOINT RightHandIndex2
									{
										OFFSET	 0.000000	 0.000000	 0.052305
										CHANNELS 3 Zrotation Xrotation Yrotation
										JOINT RightHandIndex3
										{
											OFFSET	 0.009002	-0.000782	 0.042196
											CHANNELS 3 Zrotation Xrotation Yrotation
											End Site
											{
												OFFSET	 0.009002	-0.000782	 0.042196
											}
										}
									}
								}
							}
						}
					}
				}
			}
		}
	}
}
MOTION
Frames:    13
Frame Time: 0.03333334
-21.541470	-45.591030	 0.722085	-49.007510	 10.834190	 2.160793	 1.891951	-42.750390	 172.635800	-1.014023	-60.772870	-1.308108	 0.483002	 66.124470	 0.081849	-2.344358	 35.195090	-0.153578	-3.376165	-40.500500	-179.936500	 4.010274	-54.364380	 3.116222	 1.195874	 65.427510	-0.256741	 2.404387	 21.709590	-0.138955	 0.391089	 1.896242	 0.096196	 0.657652	-3.145607	 0.061433	 0.789821	-3.774627	 0.078084	-116.903000	 88.793900	-149.245100	 30.693940	 54.212780	-44.169960	-13.518510	 1.622548	-31.465050	-12.955110	-44.214050	-7.511901	-5.200181	-11.342210	-0.312210	-5.213516	-0.193813	 3.566525	-1.378229	 35.397820	-2.634230	-0.250915	-0.813061	-3.131359	 0.382611	-0.640079	 0.002137	 93.518500	 84.780080	 170.381400	-27.393590	 69.554700	 42.746020	 2.288249	-15.887330	 35.926880	-13.218740	-44.776050	 13.545730	-6.935678	-8.591409	-32.892520	 5.070815	-0.697434	-9.399699	-2.350882	 35.473990	 5.254307
-21.551860	-45.601360	 0.722130	-48.663920	 10.834190	 2.160793	 1.891951	-42.750390	 172.635800	-1.014023	-60.772870	-1.308108	 0.483002	 66.124470	 0.081849	-2.344358	 35.195090	-0.153578	-3.376165	-40.500500	-179.936500	 4.010274	-54.364380	 3.116222	 1.195874	 65.427510	-0.256741	 2.404387	 21.709590	-0.138955	 0.291402	 1.897352	 0.094551	 0.491284	-3.143621	 0.045884	 0.590014	-3.772294	 0.058319	-116.903000	 88.793900	-149.245100	 30.693940	 54.212780	-44.169960	-13.518460	 1.622538	-31.465170	-11.426200	-34.616530	-6.537570	-5.200181	-11.342210	-0.312210	-5.213516	-0.193813	 3.566525	-1.378229	 35.397820	-2.634230	-0.250915	-0.813061	-3.131359	 0.333937	-0.641131	 0.001868	 93.518500	 84.780080	 170.381400	-27.393590	 69.554700	 42.746020	 2.288275	-15.887320	 35.926840	-15.983200	-35.339250	 11.760400	-6.935678	-8.591409	-32.892520	 5.070815	-0.697434	-9.399699	-2.350882	 35.473990	 5.254307
-21.560930	-45.610260	 0.721858	-48.437180	 10.834190	 2.160792	 1.891951	-42.750390	 172.635800	-1.014023	-60.772870	-1.308108	 0.483002	 66.124470	 0.081849	-2.344358	 35.195090	-0.153578	-3.376165	-40.500500	-179.936500	 4.010274	-54.364380	 3.116222	 1.195874	 65.427510	-0.256741	 2.404387	 21.709590	-0.138955	 0.194485	 1.899272	 0.092949	 0.329550	-3.140261	 0.030769	 0.395768	-3.768287	 0.039105	-116.903000	 88.793900	-149.245100	 30.693940	 54.212780	-44.169960	-13.518360	 1.622627	-31.465180	-11.258540	-33.394510	-6.443682	-5.200181	-11.342210	-0.312210	-5.213516	-0.193813	 3.566525	-1.378229	 35.397820	-2.634230	-0.250915	-0.813061	-3.131359	 0.286622	-0.641925	 0.001605	 93.518500	 84.780080	 170.381400	-27.393590	 69.554700	 42.746020	 2.288382	-15.887330	 35.926810	-16.286340	-34.134770	 11.587590	-6.935678	-8.591409	-32.892520	 5.070815	-0.697434	-9.399699	-2.350882	 35.473990	 5.254307
-21.569210	-45.619120	 0.722673	-48.610370	 10.834190	 2.160793	 1.891951	-42.750390	 172.635800	-1.014023	-60.772870	-1.308108	 0.483002	 66.124470	 0.081849	-2.344358	 35.195090	-0.153578	-3.376165	-40.500500	-179.936500	 4.010274	-54.364380	 3.116222	 1.195874	 65.427510	-0.256741	 2.404387	 21.709590	-0.138955	 0.087124	 1.902355	 0.091180	 0.150372	-3.134899	 0.014033	 0.180586	-3.761877	 0.017833	-116.903000	 88.793900	-149.245100	 30.693940	 54.212780	-44.169960	-13.518290	 1.622679	-31.465280	-25.126490	-72.553590	-18.210980	-5.200181	-11.342210	-0.312210	-5.213516	-0.193813	 3.566525	-1.378229	 35.397820	-2.634230	-0.250915	-0.813061	-3.131359	 0.234162	-0.642573	 0.001314	 93.518500	 84.780080	 170.381400	-27.393590	 69.554700	 42.746020	 2.288253	-15.887390	 35.926850	 8.095543	-71.846590	 32.250820	-6.935678	-8.591409	-32.892520	 5.070815	-0.697434	-9.399699	-2.350882	 35.473990	 5.254307
-21.575950	-45.626580	 0.724745	-49.003320	 10.834200	 2.160793	 1.891951	-42.750390	 172.635800	-1.014023	-60.772870	-1.308108	 0.483002	 66.124470	 0.081849	-2.344358	 35.195090	-0.153578	-3.376165	-40.500500	-179.936500	 4.010274	-54.364380	 3.116222	 1.195874	 65.427510	-0.256741	 2.404387	 21.709590	-0.138955	-0.017731	 1.906318	 0.089458	-0.024605	-3.128032	-0.002294	-0.029561	-3.753634	-0.002918	-116.903000	 88.793900	-149.245100	 30.693940	 54.212780	-44.169960	-13.518240	 1.622671	-31.465230	-6.244083	 15.123860	-5.569749	-5.200181	-11.342210	-0.312210	-5.213516	-0.193813	 3.566525	-1.378229	 35.397820	-2.634230	-0.250915	-0.813061	-3.131359	 0.182950	-0.642965	 0.001026	 93.518500	 84.780080	 170.381400	-27.393590	 69.554700	 42.746020	 2.288116	-15.887410	 35.926840	-25.235920	 13.869170	 9.860387	-6.935678	-8.591409	-32.892520	 5.070815	-0.697434	-9.399699	-2.350882	 35.473990	 5.254307
-21.581880	-45.632370	 0.726546	-49.294850	 10.834190	 2.160793	 1.891951	-42.750390	 172.635800	-1.014023	-60.772870	-1.308108	 0.483002	 66.124470	 0.081849	-2.344358	 35.195090	-0.153578	-3.376165	-40.500500	-179.936500	 4.010274	-54.364380	 3.116222	 1.195874	 65.427510	-0.256741	 2.404387	 21.709590	-0.138955	-0.120517	 1.911129	 0.087778	-0.196153	-3.119728	-0.018279	-0.235575	-3.743663	-0.023225	-116.903000	 88.793900	-149.245100	 30.693940	 54.212780	-44.169960	-13.518340	 1.622741	-31.465150	-7.991664	-3.078840	-5.384007	-5.200181	-11.342210	-0.312210	-5.213516	-0.193813	 3.566525	-1.378229	 35.397820	-2.634230	-0.250915	-0.813061	-3.131359	 0.132668	-0.643009	 0.000744	 93.518500	 84.780080	 170.381400	-27.393590	 69.554700	 42.746020	 2.288231	-15.887410	 35.926840	-22.148060	-4.157183	 9.595452	-6.935678	-8.591409	-32.892520	 5.070815	-0.697434	-9.399699	-2.350882	 35.473990	 5.254307
-21.587240	-45.636360	 0.728017	-49.381990	 10.834190	 2.160793	 1.891951	-42.750390	 172.635800	-1.014023	-60.772870	-1.308108	 0.483002	 66.124470	 0.081849	-2.344358	 35.195090	-0.153578	-3.376165	-40.500500	-179.936500	 4.010274	-54.364380	 3.116222	 1.195874	 65.427510	-0.256741	 2.404387	 21.709590	-0.138955	-0.219047	 1.916599	 0.086177	-0.360571	-3.110290	-0.033572	-0.433022	-3.732322	-0.042651	-116.903000	 88.793900	-149.245100	 30.693940	 54.212780	-44.169960	-13.518420	 1.622714	-31.465150	-10.149690	-24.411340	-5.905749	-5.200181	-11.342210	-0.312210	-5.213516	-0.193813	 3.566525	-1.378229	 35.397820	-2.634230	-0.250915	-0.813061	-3.131359	 0.084511	-0.642954	 0.000474	 93.518500	 84.780080	 170.381400	-27.393590	 69.554700	 42.746020	 2.288157	-15.887450	 35.926810	-18.286000	-25.267560	 10.593420	-6.935678	-8.591409	-32.892520	 5.070815	-0.697434	-9.399699	-2.350882	 35.473990	 5.254307
-21.592300	-45.639160	 0.729246	-49.339740	 10.834190	 2.160793	 1.891951	-42.750390	 172.635800	-1.014023	-60.772870	-1.308108	 0.483002	 66.124470	 0.081849	-2.344358	 35.195090	-0.153578	-3.376165	-40.500500	-179.936500	 4.010274	-54.364380	 3.116222	 1.195874	 65.427510	-0.256741	 2.404387	 21.709590	-0.138955	-0.320223	 1.923084	 0.084545	-0.529383	-3.099116	-0.049239	-0.635745	-3.718881	-0.062544	-116.903000	 88.793900	-149.245100	 30.693940	 54.212780	-44.169960	-13.518400	 1.622681	-31.465260	-13.462870	-46.847420	-7.873572	-5.200181	-11.342210	-0.312210	-5.213516	-0.193813	 3.566525	-1.378229	 35.397820	-2.634230	-0.250915	-0.813061	-3.131359	 0.034998	-0.642615	 0.000196	 93.518500	 84.780080	 170.381400	-27.393590	 69.554700	 42.746020	 2.288117	-15.887480	 35.926830	-12.302230	-47.356300	 14.205800	-6.935678	-8.591409	-32.892520	 5.070815	-0.697434	-9.399699	-2.350882	 35.473990	 5.254307
-21.598010	-45.641510	 0.730410	-49.290530	 10.834200	 2.160793	 1.891951	-42.750390	 172.635800	-1.014023	-60.772870	-1.308108	 0.483002	 66.124470	 0.081849	-2.344358	 35.195090	-0.153578	-3.376165	-40.500500	-179.936500	 4.010274	-54.364380	 3.116222	 1.195874	 65.427510	-0.256741	 2.404387	 21.709590	-0.138955	-0.456891	 1.933246	 0.082364	-0.757406	-3.081620	-0.070332	-0.909597	-3.697817	-0.089319	-116.903000	 88.793900	-149.245100	 30.693940	 54.212780	-44.169960	-13.518500	 1.622687	-31.465170	-165.793100	-75.845060	-157.472900	-5.200181	-11.342210	-0.312210	-5.213516	-0.193813	 3.566525	-1.378229	 35.397820	-2.634230	-0.250915	-0.813061	-3.131359	-0.031913	-0.641830	-0.000179	 93.518500	 84.780080	 170.381400	-27.393590	 69.554700	 42.746020	 2.288168	-15.887420	 35.926820	 123.917100	-72.900980	 145.569800	-6.935678	-8.591409	-32.892520	 5.070815	-0.697434	-9.399699	-2.350882	 35.473990	 5.254307
-21.600590	-45.642190	 0.730781	-49.259370	 10.834200	 2.160793	 1.891951	-42.750390	 172.635800	-1.014023	-60.772870	-1.308108	 0.483002	 66.124470	 0.081849	-2.344358	 35.195090	-0.153578	-3.376165	-40.500500	-179.936500	 4.010274	-54.364380	 3.116222	 1.195874	 65.427510	-0.256741	 2.404387	 21.709590	-0.138955	-0.530422	 1.939397	 0.081206	-0.880081	-3.071042	-0.081643	-1.056927	-3.685075	-0.103672	-116.903000	 88.793900	-149.245100	 30.693940	 54.212780	-44.169960	-13.518590	 1.622699	-31.465100	-9.350526	-16.999560	-5.622268	-5.200181	-11.342210	-0.312210	-5.213516	-0.193813	 3.566525	-1.378229	 35.397820	-2.634230	-0.250915	-0.813061	-3.131359	-0.067921	-0.641211	-0.000380	 93.518500	 84.780080	 170.381400	-27.393590	 69.554700	 42.746020	 2.288303	-15.887440	 35.926890	-19.721980	-17.938630	 10.063190	-6.935678	-8.591409	-32.892520	 5.070815	-0.697434	-9.399699	-2.350882	 35.473990	 5.254307
-21.603750	-45.642360	 0.730973	-49.102090	 10.834190	 2.160792	 1.891951	-42.750390	 172.635800	-1.014023	-60.772870	-1.308108	 0.483002	 66.124470	 0.081849	-2.344358	 35.195090	-0.153578	-3.376165	-40.500500	-179.936500	 4.010274	-54.364380	 3.116222	 1.195874	 65.427510	-0.256741	 2.404387	 21.709590	-0.138955	-0.627530	 1.948251	 0.079690	-1.042109	-3.055826	-0.096539	-1.251480	-3.666752	-0.122559	-116.903000	 88.793900	-149.245100	 30.693940	 54.212780	-44.169960	-13.518560	 1.622727	-31.465030	-10.536780	-27.724570	-6.075505	-5.200181	-11.342210	-0.312210	-5.213516	-0.193813	 3.566525	-1.378229	 35.397820	-2.634230	-0.250915	-0.813061	-3.131359	-0.115514	-0.640248	-0.000646	 93.518500	 84.780080	 170.381400	-27.393590	 69.554700	 42.746020	 2.288350	-15.887540	 35.926970	-17.589970	-28.540840	 10.907980	-6.935678	-8.591409	-32.892520	 5.070815	-0.697434	-9.399699	-2.350882	 35.473990	 5.254307
-21.606810	-45.641850	 0.730788	-48.842220	 10.834190	 2.160793	 1.891951	-42.750390	 172.635800	-1.014023	-60.772870	-1.308108	 0.483002	 66.124470	 0.081849	-2.344358	 35.195090	-0.153578	-3.376165	-40.500500	-179.936500	 4.010274	-54.364380	 3.116222	 1.195874	 65.427510	-0.256741	 2.404387	 21.709590	-0.138955	-0.728782	 1.958377	 0.078132	-1.211002	-3.038436	-0.112002	-1.454314	-3.645798	-0.142158	-116.903000	 88.793900	-149.245100	 30.693940	 54.212780	-44.169960	-13.518680	 1.622795	-31.464920	-10.673160	-28.846680	-6.139928	-5.200181	-11.342210	-0.312210	-5.213516	-0.193813	 3.566525	-1.378229	 35.397820	-2.634230	-0.250915	-0.813061	-3.131359	-0.165200	-0.638885	-0.000921	 93.518500	 84.780080	 170.381400	-27.393590	 69.554700	 42.746020	 2.288368	-15.887570	 35.926930	-17.344500	-29.648670	 11.027290	-6.935678	-8.591409	-32.892520	 5.070815	-0.697434	-9.399699	-2.350882	 35.473990	 5.254307
-21.609430	-45.640840	 0.730196	-48.644580	 10.834200	 2.160793	 1.891951	-42.750390	 172.635800	-1.014023	-60.772870	-1.308108	 0.483002	 66.124470	 0.081849	-2.344358	 35.195090	-0.153578	-3.376165	-40.500500	-179.936500	 4.010274	-54.364380	 3.116222	 1.195874	 65.427510	-0.256741	 2.404387	 21.709590	-0.138955	-0.828104	 1.969192	 0.076627	-1.376681	-3.019855	-0.127106	-1.653272	-3.623409	-0.161290	-116.903000	 88.793900	-149.245100	 30.693940	 54.212780	-44.169960	-13.518780	 1.622705	-31.464970	-9.305370	-16.558170	-5.608953	-5.200181	-11.342210	-0.312210	-5.213516	-0.193813	 3.566525	-1.378229	 35.397820	-2.634230	-0.250915	-0.813061	-3.131359	-0.213928	-0.637361	-0.001190	 93.518500	 84.780080	 170.381400	-27.393590	 69.554700	 42.746020	 2.288373	-15.887620	 35.926910	-19.803750	-17.502100	 10.037900	-6.935678	-8.591409	-32.892520	 5.070815	-0.697434	-9.399699	-2.350882	 35.473990	 5.254307
